<svg width="40" height="40" viewBox="0 0 40 40" fill="none" xmlns="http://www.w3.org/2000/svg">
<circle cx="20" cy="20" r="20" fill="#0395D3"/>
<path d="M9.91246 16.8136C8.91786 16.3686 8.91785 14.9647 9.91246 14.5198L18.9616 10.4716C19.6219 10.1761 20.3778 10.1761 21.0381 10.4716L30.0872 14.5198C31.0818 14.9647 31.0818 16.3686 30.0872 16.8136L21.0381 20.8618C20.3778 21.1572 19.6219 21.1572 18.9616 20.8618L9.91246 16.8136Z" fill="white"/>
<path d="M9.4375 18.3813V23.25C9.4375 23.6987 9.80127 24.0625 10.25 24.0625C10.6987 24.0625 11.0625 23.6987 11.0625 23.25V19.1082L9.4375 18.3813Z" fill="white"/>
<path d="M12.4165 19.714V22.1667C12.4165 26.3547 15.8117 29.75 19.9998 29.75C24.188 29.75 27.5832 26.3547 27.5832 22.1667V19.714L21.7018 22.3451C20.6192 22.8294 19.3805 22.8294 18.2979 22.3451L12.4165 19.714Z" fill="white"/>
</svg>
