<svg width="40" height="40" viewBox="0 0 40 40" fill="none" xmlns="http://www.w3.org/2000/svg">
<circle cx="20" cy="20" r="20" fill="#0395D3"/>
<path d="M20.7856 26.6944L22.9666 30.0869C23.4518 30.8419 24.4573 31.0604 25.2123 30.5751C25.9671 30.0899 26.1857 29.0844 25.7004 28.3294L22.2452 22.9548C22.1706 23.2129 22.0911 23.4718 22.0065 23.731C21.6935 24.6889 21.2944 25.6978 20.7856 26.6944Z" fill="white"/>
<path d="M21.0126 21.235C22.0206 22.0511 23.3424 22.7812 25.0226 23.2014C25.8933 23.419 26.7756 22.8897 26.9932 22.019C27.211 21.1483 26.6816 20.2661 25.8109 20.0484C23.6316 19.5035 22.409 18.2553 21.8508 17.3825C21.6254 17.0303 21.2952 16.5794 20.8384 16.2141C20.3607 15.8321 19.6804 15.4971 18.8336 15.5476C16.6495 15.678 13.978 17.2191 13.0418 20.0276C12.758 20.8791 13.2182 21.7993 14.0696 22.0831C14.921 22.367 15.8413 21.9068 16.1251 21.0554C16.4619 20.0447 17.3006 19.3345 18.1355 19.0018C17.9778 20.0072 17.7328 21.1136 17.3723 22.2172C16.6119 24.5447 15.4087 26.647 13.6517 27.8769C12.9165 28.3916 12.7377 29.4049 13.2523 30.1401C13.568 30.5911 14.0714 30.8327 14.583 30.8333C14.9055 30.8338 15.2312 30.7384 15.5155 30.5394C18.0918 28.736 19.597 25.8731 20.4616 23.2264C20.6802 22.5572 20.8623 21.8884 21.0126 21.235Z" fill="white"/>
<path d="M22.7081 11.875C22.7081 13.3708 21.4956 14.5833 19.9998 14.5833C18.5041 14.5833 17.2915 13.3708 17.2915 11.875C17.2915 10.3792 18.5041 9.16666 19.9998 9.16666C21.4956 9.16666 22.7081 10.3792 22.7081 11.875Z" fill="white"/>
</svg>
